<svg width="12" height="12" viewBox="0 0 12 12" fill="none" xmlns="http://www.w3.org/2000/svg">
<path fill-rule="evenodd" clip-rule="evenodd" d="M6.38767 1.37534C6.95348 0.828864 7.71129 0.526481 8.49788 0.533317C9.28447 0.540152 10.0369 0.855658 10.5931 1.41188C11.1494 1.96811 11.4649 2.72054 11.4717 3.50713C11.4785 4.29373 11.1761 5.05153 10.6297 5.61734L10.6236 5.62354L9.12365 7.12347C8.81952 7.42771 8.45351 7.66299 8.05045 7.81334C7.6474 7.96369 7.21672 8.0256 6.78764 7.99487C6.35855 7.96414 5.94109 7.84149 5.56358 7.63524C5.18606 7.42898 4.85732 7.14395 4.59965 6.79947C4.43424 6.57835 4.47942 6.265 4.70054 6.0996C4.92167 5.9342 5.23501 5.97937 5.40041 6.20049C5.57219 6.43014 5.79136 6.62017 6.04303 6.75767C6.29471 6.89517 6.57302 6.97694 6.85907 6.99743C7.14513 7.01791 7.43225 6.97664 7.70095 6.87641C7.96965 6.77617 8.21366 6.61932 8.41641 6.41649L8.41648 6.41643L9.91323 4.91967C10.2758 4.54279 10.4763 4.03885 10.4717 3.51582C10.4672 2.99143 10.2568 2.48981 9.88602 2.11899C9.51521 1.74817 9.01358 1.53784 8.48919 1.53328C7.96593 1.52873 7.46179 1.72943 7.08485 2.09225L6.22755 2.94457C6.03172 3.13926 5.71514 3.13833 5.52045 2.9425C5.32576 2.74667 5.32668 2.43009 5.52251 2.2354L6.38251 1.3804L6.38767 1.37534Z" fill="#D2D2D2"/>
<path fill-rule="evenodd" clip-rule="evenodd" d="M3.94968 4.18675C4.35273 4.0364 4.78341 3.97449 5.21249 4.00522C5.64158 4.03595 6.05904 4.15861 6.43655 4.36486C6.81407 4.57111 7.14281 4.85615 7.40048 5.20062C7.56589 5.42175 7.52071 5.73509 7.29959 5.90049C7.07846 6.0659 6.76512 6.02073 6.59972 5.7996C6.42794 5.56995 6.20877 5.37993 5.9571 5.24243C5.70542 5.10492 5.42711 5.02316 5.14106 5.00267C4.855 4.98218 4.56788 5.02346 4.29918 5.12369C4.03048 5.22392 3.78647 5.38077 3.58372 5.5836L2.0869 7.08042C1.72438 7.45731 1.52385 7.96125 1.5284 8.48427C1.53295 9.00867 1.74329 9.51029 2.11411 9.88111C2.48492 10.2519 2.98655 10.4623 3.51094 10.4668C4.03396 10.4714 4.5379 10.2708 4.91478 9.90832L5.76655 9.05656C5.96181 8.8613 6.27839 8.8613 6.47365 9.05656C6.66892 9.25182 6.66892 9.5684 6.47365 9.76367L5.61865 10.6187L5.61246 10.6248C5.04665 11.1712 4.28884 11.4736 3.50225 11.4668C2.71566 11.4599 1.96322 11.1444 1.407 10.5882C0.850776 10.032 0.535269 9.27955 0.528434 8.49296C0.521598 7.70637 0.823982 6.94856 1.37046 6.38276L1.37655 6.37656L2.87648 4.87662C2.8765 4.8766 2.87646 4.87664 2.87648 4.87662C3.1806 4.57241 3.54665 4.3371 3.94968 4.18675Z" fill="#D2D2D2"/>
</svg>
