<svg xmlns="http://www.w3.org/2000/svg" viewBox="0 0 334.94 68.66"><defs><style>.cls-1{fill:#fff;}</style></defs><title>uis</title><g id="Layer_2" data-name="Layer 2"><g id="Layer_1-2" data-name="Layer 1"><path class="cls-1" d="M43.85,58.06c0,2.65.4,4.57,1.2,5.78s2.3,1.8,4.31,1.8v1.81c-1.78-.17-3.56-.25-5.34-.25a55.8,55.8,0,0,0-12.58,1.2V60.65q-4,8-13.87,8-6.45,0-9.39-3.36a10.75,10.75,0,0,1-2.06-4.22,32.2,32.2,0,0,1-.61-7V32.31c0-2.65-.43-4.57-1.29-5.78S2,24.72,0,24.72v-1.8c1.78.17,3.56.25,5.34.25A55.8,55.8,0,0,0,17.92,22V57.63a11.24,11.24,0,0,0,1,5.43c.75,1.21,2.13,1.81,4.14,1.81A7.41,7.41,0,0,0,28.94,62a10.64,10.64,0,0,0,2.5-7.15V32.31c0-2.65-.43-4.57-1.29-5.78s-2.21-1.81-4.22-1.81v-1.8c1.84.17,3.62.25,5.34.25A55.86,55.86,0,0,0,43.85,22Z"/><path class="cls-1" d="M64.38.69A8.32,8.32,0,0,1,70.07,2.5a5.82,5.82,0,0,1,2.15,4.82,6,6,0,0,1-2.15,4.91A8.61,8.61,0,0,1,64.38,14a9,9,0,0,1-5.77-1.73,6.2,6.2,0,0,1-2.06-4.91A6,6,0,0,1,58.61,2.5,8.67,8.67,0,0,1,64.38.69ZM71.1,59.44c0,2.36.41,4,1.21,4.91s2.3,1.29,4.31,1.29v1.81c-5.75-.23-9.56-.34-11.46-.34s-5.77.11-12,.34V65.64c2.06,0,3.5-.43,4.3-1.29s1.21-2.55,1.21-4.91V32.31c0-2.65-.4-4.57-1.21-5.78s-2.24-1.81-4.3-1.81v-1.8c1.83.17,3.61.25,5.34.25A54.31,54.31,0,0,0,71.1,22Z"/><path class="cls-1" d="M97.41,21.71a20.2,20.2,0,0,1,6,.86,14,14,0,0,1,4.22,1.81,2.85,2.85,0,0,0,1.55.6,1.54,1.54,0,0,0,1.3-.77,5.19,5.19,0,0,0,.77-2.41h1.81q-.34,4.38-.34,15.16h-1.81a21.25,21.25,0,0,0-3.45-9.48,8.54,8.54,0,0,0-7.58-3.88,6.42,6.42,0,0,0-4.31,1.47A5.15,5.15,0,0,0,94,29.12a7.27,7.27,0,0,0,2,5.08,46,46,0,0,0,6.2,5.08l2.5,1.81a44.25,44.25,0,0,1,7.75,7.07,11.92,11.92,0,0,1,2.5,7.75,10.77,10.77,0,0,1-2.24,6.72,13.62,13.62,0,0,1-5.86,4.48,21,21,0,0,1-8.18,1.55,16.83,16.83,0,0,1-8.1-1.81,43,43,0,0,0-4-1.81,1.39,1.39,0,0,0-1.55.6,6.11,6.11,0,0,0-1,2.42H82.25q.34-4.92.35-17.23h1.81Q86.12,66.67,96,66.68a6.29,6.29,0,0,0,4.22-1.47,5.8,5.8,0,0,0,1.81-4.65A8.39,8.39,0,0,0,101,56.25a12.69,12.69,0,0,0-2.67-3.36c-1.1-1-2.73-2.32-4.91-4q-3.89-3.1-6-5A19.16,19.16,0,0,1,84,39.37,12.06,12.06,0,0,1,82.6,33.6a10.23,10.23,0,0,1,4.3-8.7A17.17,17.17,0,0,1,97.41,21.71Z"/><path class="cls-1" d="M142.54,21.71a25.43,25.43,0,0,1,6,.69,15.73,15.73,0,0,1,4.74,1.89,9.74,9.74,0,0,1,3.45,3.54,8.43,8.43,0,0,1,1.29,4.56,6.92,6.92,0,0,1-1.9,5,7.46,7.46,0,0,1-9.73.17,6.11,6.11,0,0,1-1.81-4.65,6.64,6.64,0,0,1,1.64-4.48,8.25,8.25,0,0,1,4.05-2.59,4.34,4.34,0,0,0-2.16-1.46,7.46,7.46,0,0,0-3-.6q-5.17,0-8.1,5.68t-2.84,14.73q0,9.23,3.27,13.27a10.11,10.11,0,0,0,8.18,4A12.44,12.44,0,0,0,151.5,60a14.36,14.36,0,0,0,5.43-5.43l1.46.52a21.91,21.91,0,0,1-6,9.65,15.76,15.76,0,0,1-11.11,4q-8.87,0-14.47-5.86t-5.6-17.4a27.86,27.86,0,0,1,2.76-12.92,18.56,18.56,0,0,1,7.58-8A21.78,21.78,0,0,1,142.54,21.71Z"/><path class="cls-1" d="M180.37,29.72q3.87-8,14-8,6.72,0,9.47,3.36A9.4,9.4,0,0,1,206,29.38a27.64,27.64,0,0,1,.69,6.89V59.44c0,2.36.4,4,1.21,4.91s2.24,1.29,4.3,1.29v1.81q-9-.35-11.37-.34-2.92,0-11.2.34V65.64c1.73,0,2.93-.43,3.62-1.29s1-2.55,1-4.91V32.65A9.7,9.7,0,0,0,193,27.31c-.75-1.21-2.13-1.81-4.14-1.81a7.83,7.83,0,0,0-6.11,2.84,10.35,10.35,0,0,0-2.41,7.07v24c0,2.36.34,4,1,4.91A4.41,4.41,0,0,0,185,65.64v1.81q-8.27-.35-10.68-.34-2.94,0-11.89.34V65.64c2,0,3.42-.43,4.22-1.29S168,61.8,168,59.44v-49q0-4-1.29-5.77c-.8-1.2-2.21-1.81-4.22-1.81V1c1.84.18,3.62.26,5.34.26A55.8,55.8,0,0,0,180.37.09Z"/><path class="cls-1" d="M237.51,21.71q9.92,0,15.51,5.68t5.6,17.84q0,12.23-5.6,17.83t-15.51,5.6q-9.81,0-15.5-5.6t-5.6-17.83q0-12.24,5.6-17.84T237.51,21.71Zm0,1.72q-3.7,0-5.94,5.43t-2.16,16.37q0,11,2.16,16.37t5.94,5.34q3.8,0,6-5.26t2.15-16.45q0-11.11-2.24-16.46T237.51,23.43Z"/><path class="cls-1" d="M286.22,21.71q9.9,0,15.5,5.68t5.6,17.84q0,12.23-5.6,17.83t-15.5,5.6q-9.83,0-15.51-5.6t-5.6-17.83q0-12.24,5.6-17.84T286.22,21.71Zm0,1.72q-3.71,0-6,5.43t-2.15,16.37q0,11,2.15,16.37t6,5.34c2.52,0,4.51-1.75,5.94-5.26s2.16-9,2.16-16.45-.75-12.9-2.24-16.46S288.69,23.43,286.22,23.43Z"/><path class="cls-1" d="M329.43,59.44c0,2.36.4,4,1.21,4.91s2.24,1.29,4.3,1.29v1.81q-9-.35-11.54-.34-2.92,0-11.89.34V65.64c2,0,3.42-.43,4.22-1.29s1.3-2.55,1.3-4.91V10.34c0-2.64-.43-4.57-1.3-5.77s-2.21-1.81-4.22-1.81V1c1.84.17,3.62.26,5.34.26A55.74,55.74,0,0,0,329.43,0Z"/></g></g></svg>