<svg width="351" height="121" viewBox="0 0 351 121" fill="none" xmlns="http://www.w3.org/2000/svg">
<path d="M51.975 58.7257C51.975 61.3676 52.377 63.2915 53.181 64.4976C54.0424 65.7037 55.478 66.3067 57.488 66.3067V68.1158C55.7077 67.9435 53.9275 67.8574 52.1473 67.8574C47.1512 67.8574 42.9591 68.2594 39.5709 69.0634V61.3101C36.9293 66.6513 32.3064 69.3219 25.7024 69.3219C21.3954 69.3219 18.2657 68.202 16.3132 65.9621C15.3943 64.8709 14.7052 63.4638 14.2458 61.7409C13.8438 59.9605 13.6428 57.6345 13.6428 54.7629V32.9675C13.6428 30.3257 13.2121 28.4017 12.3507 27.1956C11.5468 25.9896 10.1398 25.3865 8.12988 25.3865V23.5774C9.9101 23.7497 11.6903 23.8359 13.4705 23.8359C18.4667 23.8359 22.6588 23.4338 26.047 22.6298V58.295C26.047 60.7071 26.3915 62.5162 27.0806 63.7223C27.8272 64.9283 29.2054 65.5314 31.2153 65.5314C33.5124 65.5314 35.4649 64.5838 37.0728 62.6885C38.7382 60.7358 39.5709 58.3524 39.5709 55.5382V32.9675C39.5709 30.3257 39.1402 28.4017 38.2788 27.1956C37.4748 25.9896 36.0679 25.3865 34.058 25.3865V23.5774C35.8956 23.7497 37.6758 23.8359 39.3986 23.8359C44.3947 23.8359 48.5869 23.4338 51.975 22.6298V58.7257Z" fill="white"/>
<path d="M72.5146 1.35129C74.9266 1.35129 76.8216 1.95433 78.1999 3.1604C79.6355 4.30903 80.3534 5.91712 80.3534 7.98467C80.3534 10.0522 79.6355 11.689 78.1999 12.8951C76.8216 14.0437 74.9266 14.618 72.5146 14.618C70.1027 14.618 68.1789 14.0437 66.7433 12.8951C65.365 11.689 64.6759 10.0522 64.6759 7.98467C64.6759 5.91712 65.365 4.30903 66.7433 3.1604C68.1789 1.95433 70.1027 1.35129 72.5146 1.35129ZM79.2335 60.1041C79.2335 62.4588 79.6355 64.0956 80.4395 65.0145C81.3009 65.876 82.7366 66.3067 84.7465 66.3067V68.1158C79.0038 67.8861 75.185 67.7712 73.2899 67.7712C71.5097 67.7712 67.5185 67.8861 61.3165 68.1158V66.3067C63.3838 66.3067 64.8195 65.876 65.6235 65.0145C66.4274 64.0956 66.8294 62.4588 66.8294 60.1041V32.9675C66.8294 30.3257 66.4274 28.4017 65.6235 27.1956C64.8195 25.9896 63.3838 25.3865 61.3165 25.3865V23.5774C63.1541 23.7497 64.9343 23.8359 66.6571 23.8359C71.7681 23.8359 75.9602 23.4338 79.2335 22.6298V60.1041Z" fill="white"/>
<path d="M105.543 22.3714C107.725 22.3714 109.735 22.6585 111.573 23.2328C113.411 23.7497 114.818 24.3527 115.794 25.0419C116.368 25.444 116.885 25.645 117.344 25.645C117.861 25.645 118.292 25.3865 118.636 24.8696C119.038 24.2953 119.297 23.4913 119.412 22.4575H121.221C120.991 25.3865 120.876 30.4405 120.876 37.6195H119.067C118.55 33.829 117.402 30.6702 115.622 28.1432C113.899 25.5588 111.372 24.2666 108.041 24.2666C106.318 24.2666 104.883 24.7548 103.734 25.7311C102.643 26.7075 102.098 28.0571 102.098 29.7801C102.098 31.7327 102.758 33.427 104.079 34.8628C105.4 36.2411 107.467 37.9354 110.281 39.9455L112.779 41.7546C116.282 44.3965 118.866 46.7512 120.531 48.8187C122.197 50.8863 123.03 53.4707 123.03 56.572C123.03 59.099 122.283 61.3389 120.79 63.2915C119.354 65.2442 117.402 66.7374 114.932 67.7712C112.463 68.805 109.735 69.3219 106.749 69.3219C103.591 69.3219 100.892 68.7188 98.652 67.5128C96.8143 66.5939 95.4935 65.9908 94.6896 65.7037C94.1153 65.5314 93.5985 65.7324 93.1391 66.3067C92.7371 66.8236 92.4212 67.6276 92.1915 68.7188H90.3826C90.6123 65.4452 90.7271 59.702 90.7271 51.4893H92.5361C93.6846 62.0568 97.5609 67.3405 104.165 67.3405C105.83 67.3405 107.237 66.8523 108.386 65.876C109.592 64.8422 110.195 63.2915 110.195 61.224C110.195 59.6159 109.821 58.1801 109.075 56.9166C108.386 55.6531 107.496 54.5332 106.405 53.5568C105.313 52.5805 103.677 51.2308 101.495 49.5079C98.9104 47.4403 96.9292 45.7748 95.551 44.5113C94.2302 43.2478 93.0816 41.7546 92.1054 40.0316C91.1866 38.3087 90.7271 36.3847 90.7271 34.2597C90.7271 30.5841 92.1628 27.6838 95.0341 25.5588C97.9054 23.4338 101.408 22.3714 105.543 22.3714Z" fill="white"/>
<path d="M150.673 22.3714C152.798 22.3714 154.808 22.6011 156.703 23.0605C158.598 23.52 160.177 24.1517 161.44 24.9558C162.934 25.8747 164.082 27.052 164.886 28.4878C165.747 29.8662 166.178 31.3881 166.178 33.0537C166.178 35.0638 165.546 36.7293 164.283 38.0502C163.02 39.3137 161.383 39.9455 159.373 39.9455C157.363 39.9455 155.755 39.3712 154.549 38.2225C153.343 37.0739 152.74 35.5232 152.74 33.5706C152.74 31.8476 153.286 30.3544 154.377 29.0909C155.468 27.8274 156.818 26.9659 158.426 26.5064C157.966 25.8747 157.248 25.3865 156.272 25.0419C155.353 24.6399 154.348 24.4389 153.257 24.4389C149.812 24.4389 147.113 26.3341 145.16 30.1246C143.265 33.8577 142.317 38.7681 142.317 44.8559C142.317 51.0011 143.409 55.4234 145.591 58.1227C147.773 60.822 150.501 62.1716 153.774 62.1716C155.727 62.1716 157.679 61.6547 159.632 60.621C161.641 59.5872 163.45 57.7781 165.058 55.1936L166.523 55.7105C165.374 59.4436 163.364 62.6598 160.493 65.3591C157.622 68.0009 153.918 69.3219 149.381 69.3219C143.466 69.3219 138.642 67.3692 134.909 63.4638C131.177 59.5585 129.31 53.7578 129.31 46.062C129.31 41.008 130.229 36.7006 132.067 33.1398C133.904 29.579 136.431 26.9085 139.647 25.1281C142.863 23.2903 146.538 22.3714 150.673 22.3714Z" fill="white"/>
<path d="M188.496 30.3831C191.081 25.0419 195.761 22.3714 202.537 22.3714C207.016 22.3714 210.175 23.4913 212.013 25.7311C212.989 26.8223 213.678 28.2581 214.08 30.0385C214.539 31.7615 214.769 34.0587 214.769 36.9303V60.1041C214.769 62.4588 215.171 64.0956 215.975 65.0145C216.779 65.876 218.215 66.3067 220.282 66.3067V68.1158C214.31 67.8861 210.52 67.7712 208.912 67.7712C206.959 67.7712 203.226 67.8861 197.713 68.1158V66.3067C199.436 66.3067 200.642 65.876 201.331 65.0145C202.02 64.0956 202.365 62.4588 202.365 60.1041V33.3121C202.365 30.9574 201.963 29.177 201.159 27.971C200.412 26.7649 199.034 26.1619 197.024 26.1619C194.612 26.1619 192.574 27.1095 190.908 29.0047C189.3 30.8425 188.496 33.1973 188.496 36.0688V60.1041C188.496 62.4588 188.841 64.0956 189.53 65.0145C190.219 65.876 191.425 66.3067 193.148 66.3067V68.1158C187.635 67.8861 184.075 67.7712 182.467 67.7712C180.514 67.7712 176.552 67.8861 170.579 68.1158V66.3067C172.589 66.3067 173.996 65.876 174.8 65.0145C175.662 64.0956 176.092 62.4588 176.092 60.1041V11.086C176.092 8.44413 175.662 6.52016 174.8 5.31409C173.996 4.10802 172.589 3.50498 170.579 3.50498V1.69588C172.417 1.86818 174.197 1.95433 175.92 1.95433C180.916 1.95433 185.108 1.5523 188.496 0.748256V30.3831Z" fill="white"/>
<path d="M245.641 22.3714C252.245 22.3714 257.414 24.2666 261.147 28.0571C264.879 31.7902 266.746 37.7344 266.746 45.8897C266.746 54.045 264.879 59.9892 261.147 63.7223C257.414 67.4553 252.245 69.3219 245.641 69.3219C239.095 69.3219 233.926 67.4553 230.136 63.7223C226.404 59.9892 224.537 54.045 224.537 45.8897C224.537 37.7344 226.404 31.7902 230.136 28.0571C233.926 24.2666 239.095 22.3714 245.641 22.3714ZM245.641 24.0943C243.172 24.0943 241.191 25.9034 239.698 29.5216C238.262 33.0824 237.544 38.5384 237.544 45.8897C237.544 53.241 238.262 58.697 239.698 62.2578C241.191 65.8185 243.172 67.5989 245.641 67.5989C248.168 67.5989 250.149 65.8473 251.585 62.3439C253.021 58.7831 253.739 53.2984 253.739 45.8897C253.739 38.481 252.992 32.9962 251.499 29.4355C250.063 25.8747 248.111 24.0943 245.641 24.0943Z" fill="white"/>
<path d="M294.347 22.3714C300.951 22.3714 306.12 24.2666 309.853 28.0571C313.585 31.7902 315.452 37.7344 315.452 45.8897C315.452 54.045 313.585 59.9892 309.853 63.7223C306.12 67.4553 300.951 69.3219 294.347 69.3219C287.801 69.3219 282.632 67.4553 278.842 63.7223C275.11 59.9892 273.243 54.045 273.243 45.8897C273.243 37.7344 275.11 31.7902 278.842 28.0571C282.632 24.2666 287.801 22.3714 294.347 22.3714ZM294.347 24.0943C291.878 24.0943 289.897 25.9034 288.404 29.5216C286.968 33.0824 286.25 38.5384 286.25 45.8897C286.25 53.241 286.968 58.697 288.404 62.2578C289.897 65.8185 291.878 67.5989 294.347 67.5989C296.874 67.5989 298.855 65.8473 300.291 62.3439C301.727 58.7831 302.445 53.2984 302.445 45.8897C302.445 38.481 301.698 32.9962 300.205 29.4355C298.769 25.8747 296.817 24.0943 294.347 24.0943Z" fill="white"/>
<path d="M337.561 60.1041C337.561 62.4588 337.963 64.0956 338.767 65.0145C339.571 65.876 341.006 66.3067 343.074 66.3067V68.1158C337.101 67.8861 333.254 67.7712 331.531 67.7712C329.578 67.7712 325.616 67.8861 319.644 68.1158V66.3067C321.653 66.3067 323.06 65.876 323.864 65.0145C324.726 64.0956 325.156 62.4588 325.156 60.1041V10.9998C325.156 8.35798 324.726 6.43401 323.864 5.22794C323.06 4.02187 321.653 3.41884 319.644 3.41884V1.60974C321.481 1.78203 323.261 1.86818 324.984 1.86818C329.98 1.86818 334.172 1.46616 337.561 0.662109V60.1041Z" fill="white"/>
<path d="M13.9536 114.195L11.7661 114.195L2.96782 100.804L2.96782 114.195L0.78027 114.195L0.780273 97.2458L2.96782 97.2458L11.7661 110.661L11.7661 97.2458L13.9536 97.2458L13.9536 114.195Z" fill="white"/>
<path d="M29.2505 106.862C29.2505 107.327 29.2185 107.728 29.1544 108.064L18.6012 108.064C18.6493 109.571 19.074 110.701 19.8753 111.454C20.6926 112.207 21.6863 112.584 22.8561 112.584C23.9139 112.584 24.7953 112.32 25.5004 111.791C26.2216 111.246 26.6623 110.525 26.8226 109.627L29.1544 109.627C28.9941 110.541 28.6335 111.358 28.0726 112.079C27.5277 112.8 26.8146 113.361 25.9331 113.762C25.0517 114.163 24.0581 114.363 22.9523 114.363C21.6862 114.363 20.5644 114.091 19.5868 113.546C18.6093 113.001 17.84 112.224 17.2791 111.214C16.7342 110.188 16.4618 108.986 16.4618 107.608C16.4618 106.229 16.7342 105.027 17.2791 104.001C17.84 102.976 18.6093 102.19 19.5868 101.645C20.5644 101.1 21.6863 100.828 22.9523 100.828C24.2344 100.828 25.3482 101.1 26.2937 101.645C27.2553 102.19 27.9845 102.92 28.4813 103.833C28.9941 104.747 29.2505 105.756 29.2505 106.862ZM27.0389 107.007C27.087 106.029 26.9268 105.211 26.5582 104.554C26.1896 103.897 25.6847 103.408 25.0437 103.088C24.4027 102.767 23.7055 102.607 22.9523 102.607C21.7504 102.607 20.7407 102.984 19.9234 103.737C19.1061 104.474 18.6653 105.564 18.6012 107.007L27.0389 107.007Z" fill="white"/>
<path d="M39.3475 114.195L35.9099 109.146L32.8089 114.195L30.3809 114.195L34.7079 107.391L30.3569 100.996L32.8569 100.996L36.1984 105.901L39.2513 100.996L41.6793 100.996L37.3763 107.632L41.8475 114.195L39.3475 114.195Z" fill="white"/>
<path d="M49.8257 112.272L49.8257 114.195L48.191 114.195C46.8448 114.195 45.8352 113.874 45.1621 113.233C44.505 112.592 44.1765 111.518 44.1765 110.012L44.1765 102.896L42.2053 102.896L42.2053 100.996L44.1765 100.996L44.1765 97.7026L46.3881 97.7026L46.3881 100.996L49.8016 100.996L49.8016 102.896L46.3881 102.896L46.3881 110.06C46.3881 110.909 46.5403 111.494 46.8448 111.815C47.1653 112.119 47.7102 112.272 48.4795 112.272L49.8257 112.272Z" fill="white"/>
<path d="M63.122 100.828C64.4041 100.828 65.4859 101.149 66.3673 101.79C67.2648 102.431 67.8898 103.288 68.2424 104.362L68.2424 100.996L70.4299 100.996L70.4299 114.411C70.4299 115.629 70.1735 116.711 69.6607 117.657C69.1478 118.602 68.4266 119.34 67.4971 119.869C66.5676 120.398 65.4859 120.662 64.2519 120.662C62.473 120.662 61.0226 120.229 59.9008 119.364C58.779 118.514 58.0658 117.36 57.7613 115.902L59.9249 115.902C60.1813 116.783 60.6621 117.473 61.3672 117.969C62.0884 118.482 63.0099 118.739 64.1317 118.739C65.3176 118.739 66.2952 118.354 67.0644 117.585C67.8497 116.831 68.2424 115.774 68.2424 114.411L68.2424 110.829C67.8898 111.903 67.2648 112.76 66.3673 113.402C65.4859 114.043 64.4041 114.363 63.122 114.363C61.9521 114.363 60.9105 114.091 59.997 113.546C59.0835 113.001 58.3623 112.224 57.8335 111.214C57.3206 110.188 57.0642 108.986 57.0642 107.608C57.0642 106.229 57.3206 105.027 57.8335 104.001C58.3623 102.976 59.0835 102.19 59.997 101.645C60.9105 101.1 61.9521 100.828 63.122 100.828ZM63.7471 102.775C62.4009 102.775 61.3191 103.208 60.5018 104.074C59.7005 104.923 59.2998 106.101 59.2998 107.608C59.2998 109.114 59.7005 110.3 60.5018 111.166C61.3191 112.015 62.4009 112.44 63.7471 112.44C64.6125 112.44 65.3817 112.24 66.0548 111.839C66.7439 111.438 67.2808 110.877 67.6654 110.156C68.05 109.419 68.2424 108.569 68.2424 107.608C68.2424 106.646 68.05 105.796 67.6654 105.059C67.2808 104.322 66.7439 103.761 66.0548 103.376C65.3817 102.976 64.6125 102.775 63.7471 102.775Z" fill="white"/>
<path d="M85.6905 106.862C85.6905 107.327 85.6585 107.728 85.5944 108.064L75.0412 108.064C75.0893 109.571 75.514 110.701 76.3153 111.454C77.1326 112.207 78.1263 112.584 79.2962 112.584C80.3539 112.584 81.2353 112.32 81.9404 111.791C82.6616 111.246 83.1023 110.525 83.2626 109.627L85.5944 109.627C85.4341 110.541 85.0735 111.358 84.5126 112.079C83.9677 112.801 83.2546 113.361 82.3731 113.762C81.4917 114.163 80.4981 114.363 79.3923 114.363C78.1263 114.363 77.0044 114.091 76.0268 113.546C75.0493 113.001 74.28 112.224 73.7191 111.214C73.1742 110.188 72.9018 108.986 72.9018 107.608C72.9018 106.229 73.1742 105.027 73.7191 104.001C74.28 102.976 75.0493 102.19 76.0269 101.645C77.0044 101.1 78.1263 100.828 79.3923 100.828C80.6744 100.828 81.7882 101.1 82.7337 101.645C83.6953 102.19 84.4245 102.92 84.9213 103.833C85.4341 104.747 85.6905 105.756 85.6905 106.862ZM83.4789 107.007C83.527 106.029 83.3668 105.211 82.9982 104.554C82.6296 103.897 82.1247 103.408 81.4837 103.088C80.8427 102.767 80.1455 102.607 79.3923 102.607C78.1904 102.607 77.1807 102.984 76.3634 103.737C75.5461 104.474 75.1054 105.564 75.0412 107.007L83.4789 107.007Z" fill="white"/>
<path d="M95.1384 100.78C96.6769 100.78 97.9189 101.277 98.8645 102.27C99.81 103.248 100.283 104.667 100.283 106.526L100.283 114.195L98.0952 114.195L98.0952 106.718C98.0952 105.404 97.7587 104.394 97.0856 103.689C96.4125 102.984 95.499 102.631 94.3451 102.631C93.1432 102.631 92.1816 103.024 91.4605 103.809C90.7393 104.578 90.3787 105.708 90.3787 107.199L90.3787 114.195L88.1912 114.195L88.1912 100.996L90.3787 100.996L90.3787 104.122C90.7152 103.048 91.3082 102.222 92.1576 101.645C93.023 101.068 94.0166 100.78 95.1384 100.78Z" fill="white"/>
<path d="M115.417 106.862C115.417 107.327 115.385 107.728 115.321 108.064L104.768 108.064C104.816 109.571 105.241 110.701 106.042 111.454C106.859 112.207 107.853 112.584 109.023 112.584C110.081 112.584 110.962 112.32 111.667 111.791C112.388 111.246 112.829 110.525 112.989 109.627L115.321 109.627C115.161 110.541 114.8 111.358 114.239 112.079C113.694 112.801 112.981 113.361 112.1 113.762C111.218 114.163 110.225 114.363 109.119 114.363C107.853 114.363 106.731 114.091 105.754 113.546C104.776 113.001 104.007 112.224 103.446 111.214C102.901 110.188 102.628 108.986 102.628 107.608C102.628 106.229 102.901 105.027 103.446 104.001C104.007 102.976 104.776 102.19 105.754 101.645C106.731 101.1 107.853 100.828 109.119 100.828C110.401 100.828 111.515 101.1 112.46 101.645C113.422 102.19 114.151 102.92 114.648 103.833C115.161 104.747 115.417 105.756 115.417 106.862ZM113.206 107.007C113.254 106.029 113.093 105.211 112.725 104.554C112.356 103.897 111.851 103.408 111.21 103.088C110.569 102.767 109.872 102.607 109.119 102.607C107.917 102.607 106.907 102.984 106.09 103.737C105.273 104.474 104.832 105.564 104.768 107.007L113.206 107.007Z" fill="white"/>
<path d="M120.105 103.665C120.538 102.751 121.171 102.046 122.004 101.549C122.838 101.036 123.831 100.78 124.985 100.78L124.985 103.16L124.312 103.16C123.078 103.16 122.069 103.481 121.283 104.122C120.498 104.747 120.105 105.788 120.105 107.247L120.105 114.195L117.918 114.195L117.918 100.996L120.105 100.996L120.105 103.665Z" fill="white"/>
<path d="M132.192 100.828C133.474 100.828 134.556 101.149 135.437 101.79C136.335 102.431 136.96 103.288 137.312 104.362L137.312 100.996L139.5 100.996L139.5 114.195L137.312 114.195L137.312 110.829C136.96 111.903 136.335 112.76 135.437 113.402C134.556 114.043 133.474 114.363 132.192 114.363C131.022 114.363 129.98 114.091 129.067 113.546C128.153 113.001 127.432 112.224 126.903 111.214C126.391 110.188 126.134 108.986 126.134 107.608C126.134 106.229 126.391 105.027 126.903 104.001C127.432 102.976 128.153 102.19 129.067 101.645C129.98 101.1 131.022 100.828 132.192 100.828ZM132.817 102.775C131.471 102.775 130.389 103.208 129.572 104.074C128.77 104.923 128.37 106.101 128.37 107.608C128.37 109.114 128.77 110.3 129.572 111.166C130.389 112.015 131.471 112.44 132.817 112.44C133.682 112.44 134.452 112.24 135.125 111.839C135.814 111.438 136.351 110.877 136.735 110.156C137.12 109.419 137.312 108.569 137.312 107.608C137.312 106.646 137.12 105.797 136.735 105.059C136.351 104.322 135.814 103.761 135.125 103.376C134.452 102.976 133.682 102.775 132.817 102.775Z" fill="white"/>
<path d="M148.919 112.272L148.919 114.195L147.284 114.195C145.938 114.195 144.928 113.874 144.255 113.233C143.598 112.592 143.27 111.518 143.27 110.012L143.27 102.896L141.299 102.896L141.299 100.996L143.27 100.996L143.27 97.7026L145.481 97.7026L145.481 100.996L148.895 100.996L148.895 102.896L145.481 102.896L145.481 110.06C145.481 110.909 145.634 111.494 145.938 111.815C146.259 112.119 146.803 112.272 147.573 112.272L148.919 112.272Z" fill="white"/>
<path d="M150.843 97.1256C150.843 96.7249 150.979 96.4044 151.252 96.164C151.524 95.9075 151.885 95.7793 152.334 95.7793C152.782 95.7793 153.143 95.9075 153.415 96.164C153.688 96.4044 153.824 96.7249 153.824 97.1256C153.824 97.5263 153.688 97.8549 153.415 98.1113C153.143 98.3517 152.782 98.4719 152.334 98.4719C151.885 98.4719 151.524 98.3517 151.252 98.1113C150.979 97.8549 150.843 97.5263 150.843 97.1256ZM153.415 100.996L153.415 114.195L151.228 114.195L151.228 100.996L153.415 100.996Z" fill="white"/>
<path d="M162.557 100.828C163.824 100.828 164.953 101.1 165.947 101.645C166.957 102.19 167.742 102.976 168.303 104.001C168.88 105.027 169.168 106.229 169.168 107.608C169.168 108.986 168.88 110.188 168.303 111.214C167.742 112.224 166.957 113.001 165.947 113.546C164.953 114.091 163.824 114.363 162.557 114.363C161.291 114.363 160.154 114.091 159.144 113.546C158.15 113.001 157.365 112.224 156.788 111.214C156.211 110.188 155.923 108.986 155.923 107.608C155.923 106.229 156.211 105.027 156.788 104.001C157.365 102.976 158.15 102.19 159.144 101.645C160.154 101.1 161.291 100.828 162.557 100.828ZM162.557 102.751C161.772 102.751 161.043 102.928 160.37 103.28C159.713 103.633 159.176 104.178 158.759 104.915C158.359 105.636 158.158 106.534 158.158 107.608C158.158 108.665 158.359 109.563 158.759 110.3C159.176 111.021 159.713 111.558 160.37 111.911C161.043 112.264 161.772 112.44 162.557 112.44C163.343 112.44 164.064 112.264 164.721 111.911C165.394 111.558 165.931 111.021 166.332 110.3C166.748 109.563 166.957 108.665 166.957 107.608C166.957 106.534 166.748 105.636 166.332 104.915C165.931 104.178 165.394 103.633 164.721 103.28C164.064 102.928 163.343 102.751 162.557 102.751Z" fill="white"/>
<path d="M178.605 100.78C180.144 100.78 181.386 101.277 182.331 102.27C183.277 103.248 183.75 104.667 183.75 106.526L183.75 114.195L181.562 114.195L181.562 106.718C181.562 105.404 181.226 104.394 180.553 103.689C179.879 102.984 178.966 102.631 177.812 102.631C176.61 102.631 175.649 103.024 174.927 103.809C174.206 104.578 173.846 105.708 173.846 107.199L173.846 114.195L171.658 114.195L171.658 100.996L173.846 100.996L173.846 104.122C174.182 103.048 174.775 102.222 175.625 101.645C176.49 101.068 177.484 100.78 178.605 100.78Z" fill="white"/>
<path d="M197.732 100.828C199.014 100.828 200.096 101.149 200.977 101.79C201.875 102.431 202.5 103.288 202.852 104.362L202.852 96.4044L205.04 96.4044L205.04 114.195L202.852 114.195L202.852 110.829C202.5 111.903 201.875 112.76 200.977 113.402C200.096 114.043 199.014 114.363 197.732 114.363C196.562 114.363 195.52 114.091 194.607 113.546C193.693 113.001 192.972 112.224 192.443 111.214C191.931 110.188 191.674 108.986 191.674 107.608C191.674 106.229 191.931 105.027 192.443 104.001C192.972 102.976 193.693 102.19 194.607 101.645C195.52 101.1 196.562 100.828 197.732 100.828ZM198.357 102.775C197.011 102.775 195.929 103.208 195.112 104.074C194.31 104.923 193.91 106.101 193.91 107.608C193.91 109.114 194.31 110.3 195.112 111.166C195.929 112.015 197.011 112.44 198.357 112.44C199.222 112.44 199.992 112.24 200.665 111.839C201.354 111.438 201.891 110.877 202.275 110.156C202.66 109.419 202.852 108.569 202.852 107.608C202.852 106.646 202.66 105.797 202.275 105.059C201.891 104.322 201.354 103.761 200.665 103.376C199.992 102.976 199.222 102.775 198.357 102.775Z" fill="white"/>
<path d="M220.3 106.862C220.3 107.327 220.268 107.728 220.204 108.064L209.651 108.064C209.699 109.571 210.124 110.701 210.925 111.454C211.743 112.208 212.736 112.584 213.906 112.584C214.964 112.584 215.845 112.32 216.55 111.791C217.272 111.246 217.712 110.525 217.873 109.627L220.204 109.627C220.044 110.541 219.683 111.358 219.123 112.079C218.578 112.801 217.865 113.361 216.983 113.762C216.102 114.163 215.108 114.363 214.002 114.363C212.736 114.363 211.614 114.091 210.637 113.546C209.659 113.001 208.89 112.224 208.329 111.214C207.784 110.188 207.512 108.986 207.512 107.608C207.512 106.229 207.784 105.027 208.329 104.001C208.89 102.976 209.659 102.19 210.637 101.645C211.614 101.1 212.736 100.828 214.002 100.828C215.284 100.828 216.398 101.1 217.344 101.645C218.305 102.19 219.034 102.92 219.531 103.833C220.044 104.747 220.3 105.756 220.3 106.862ZM218.089 107.007C218.137 106.029 217.977 105.212 217.608 104.554C217.24 103.897 216.735 103.408 216.094 103.088C215.453 102.767 214.755 102.607 214.002 102.607C212.8 102.607 211.791 102.984 210.973 103.737C210.156 104.474 209.715 105.564 209.651 107.007L218.089 107.007Z" fill="white"/>
<path d="M226.936 100.828C228.426 100.828 229.62 101.221 230.518 102.006C231.431 102.775 231.984 103.817 232.176 105.131L230.085 105.131C229.989 104.346 229.66 103.705 229.099 103.208C228.554 102.695 227.817 102.439 226.888 102.439C226.102 102.439 225.485 102.631 225.037 103.016C224.604 103.384 224.388 103.889 224.388 104.53C224.388 105.011 224.532 105.404 224.82 105.708C225.125 105.997 225.493 106.221 225.926 106.382C226.375 106.526 226.984 106.686 227.753 106.862C228.731 107.087 229.516 107.319 230.109 107.56C230.718 107.784 231.231 108.153 231.647 108.665C232.08 109.178 232.297 109.868 232.297 110.733C232.297 111.807 231.888 112.68 231.071 113.353C230.269 114.027 229.195 114.363 227.849 114.363C226.279 114.363 224.997 113.987 224.003 113.233C223.009 112.48 222.424 111.43 222.248 110.084L224.364 110.084C224.444 110.885 224.788 111.534 225.397 112.031C226.022 112.528 226.84 112.776 227.849 112.776C228.603 112.776 229.187 112.584 229.604 112.2C230.037 111.815 230.253 111.31 230.253 110.685C230.253 110.172 230.101 109.763 229.796 109.459C229.492 109.154 229.115 108.922 228.667 108.762C228.218 108.601 227.601 108.433 226.816 108.257C225.838 108.032 225.053 107.808 224.46 107.584C223.883 107.359 223.386 107.007 222.969 106.526C222.569 106.029 222.368 105.364 222.368 104.53C222.368 103.424 222.777 102.535 223.594 101.862C224.412 101.173 225.526 100.828 226.936 100.828Z" fill="white"/>
<path d="M234.474 97.1256C234.474 96.725 234.611 96.4044 234.883 96.164C235.156 95.9076 235.516 95.7793 235.965 95.7793C236.414 95.7793 236.774 95.9076 237.047 96.164C237.319 96.4044 237.455 96.725 237.455 97.1256C237.455 97.5263 237.319 97.8549 237.047 98.1113C236.774 98.3518 236.414 98.472 235.965 98.472C235.516 98.472 235.156 98.3517 234.883 98.1113C234.611 97.8549 234.474 97.5263 234.474 97.1256ZM237.047 100.996L237.047 114.195L234.859 114.195L234.859 100.996L237.047 100.996Z" fill="white"/>
<path d="M245.612 100.828C246.894 100.828 247.976 101.149 248.857 101.79C249.755 102.431 250.38 103.288 250.732 104.362L250.732 100.996L252.92 100.996L252.92 114.411C252.92 115.629 252.663 116.711 252.15 117.657C251.638 118.602 250.916 119.34 249.987 119.869C249.057 120.398 247.976 120.662 246.742 120.662C244.963 120.662 243.512 120.229 242.391 119.364C241.269 118.514 240.556 117.36 240.251 115.902L242.415 115.902C242.671 116.783 243.152 117.473 243.857 117.969C244.578 118.482 245.5 118.739 246.622 118.739C247.807 118.739 248.785 118.354 249.554 117.585C250.34 116.831 250.732 115.774 250.732 114.411L250.732 110.829C250.38 111.903 249.755 112.76 248.857 113.402C247.976 114.043 246.894 114.363 245.612 114.363C244.442 114.363 243.4 114.091 242.487 113.546C241.573 113.001 240.852 112.224 240.323 111.214C239.81 110.188 239.554 108.986 239.554 107.608C239.554 106.229 239.81 105.027 240.323 104.001C240.852 102.976 241.573 102.19 242.487 101.645C243.4 101.1 244.442 100.828 245.612 100.828ZM246.237 102.775C244.891 102.775 243.809 103.208 242.992 104.074C242.19 104.923 241.79 106.101 241.79 107.608C241.79 109.114 242.19 110.3 242.992 111.166C243.809 112.015 244.891 112.44 246.237 112.44C247.102 112.44 247.872 112.24 248.545 111.839C249.234 111.438 249.771 110.877 250.155 110.156C250.54 109.419 250.732 108.569 250.732 107.608C250.732 106.646 250.54 105.797 250.155 105.059C249.771 104.322 249.234 103.761 248.545 103.376C247.872 102.976 247.102 102.775 246.237 102.775Z" fill="white"/>
<path d="M262.988 100.78C264.526 100.78 265.768 101.277 266.714 102.27C267.66 103.248 268.132 104.667 268.132 106.526L268.132 114.195L265.945 114.195L265.945 106.718C265.945 105.404 265.608 104.394 264.935 103.689C264.262 102.984 263.349 102.631 262.195 102.631C260.993 102.631 260.031 103.024 259.31 103.809C258.589 104.578 258.228 105.708 258.228 107.199L258.228 114.195L256.041 114.195L256.041 100.996L258.228 100.996L258.228 104.122C258.565 103.048 259.158 102.222 260.007 101.645C260.872 101.068 261.866 100.78 262.988 100.78Z" fill="white"/>
<path d="M280.84 100.828C282.331 100.828 283.525 101.221 284.422 102.006C285.336 102.775 285.889 103.817 286.081 105.131L283.99 105.131C283.893 104.346 283.565 103.705 283.004 103.208C282.459 102.695 281.722 102.439 280.792 102.439C280.007 102.439 279.39 102.631 278.941 103.016C278.509 103.384 278.292 103.889 278.292 104.53C278.292 105.011 278.437 105.404 278.725 105.708C279.03 105.997 279.398 106.221 279.831 106.382C280.28 106.526 280.889 106.686 281.658 106.862C282.635 107.087 283.421 107.319 284.014 107.56C284.623 107.784 285.135 108.153 285.552 108.665C285.985 109.178 286.201 109.868 286.201 110.733C286.201 111.807 285.793 112.68 284.975 113.353C284.174 114.027 283.1 114.363 281.754 114.363C280.183 114.363 278.901 113.987 277.908 113.233C276.914 112.48 276.329 111.43 276.153 110.084L278.268 110.084C278.348 110.885 278.693 111.534 279.302 112.031C279.927 112.528 280.744 112.777 281.754 112.777C282.507 112.777 283.092 112.584 283.509 112.2C283.942 111.815 284.158 111.31 284.158 110.685C284.158 110.172 284.006 109.763 283.701 109.459C283.397 109.154 283.02 108.922 282.571 108.762C282.123 108.601 281.506 108.433 280.72 108.257C279.743 108.032 278.957 107.808 278.364 107.584C277.788 107.359 277.291 107.007 276.874 106.526C276.473 106.029 276.273 105.364 276.273 104.53C276.273 103.424 276.682 102.535 277.499 101.862C278.316 101.173 279.43 100.828 280.84 100.828Z" fill="white"/>
<path d="M294.605 100.828C296.288 100.828 297.682 101.277 298.788 102.174C299.894 103.072 300.575 104.274 300.831 105.781L298.524 105.781C298.363 104.835 297.923 104.098 297.201 103.569C296.496 103.024 295.615 102.751 294.557 102.751C293.788 102.751 293.083 102.928 292.442 103.28C291.817 103.633 291.312 104.178 290.927 104.915C290.543 105.636 290.35 106.534 290.35 107.608C290.35 108.681 290.543 109.587 290.927 110.324C291.312 111.046 291.817 111.582 292.442 111.935C293.083 112.288 293.788 112.464 294.557 112.464C295.615 112.464 296.496 112.191 297.201 111.647C297.923 111.102 298.363 110.356 298.524 109.411L300.831 109.411C300.575 110.933 299.894 112.143 298.788 113.041C297.682 113.922 296.288 114.363 294.605 114.363C293.339 114.363 292.217 114.091 291.24 113.546C290.262 113.001 289.493 112.224 288.932 111.214C288.387 110.188 288.115 108.986 288.115 107.608C288.115 106.229 288.387 105.027 288.932 104.001C289.493 102.976 290.262 102.19 291.24 101.645C292.217 101.1 293.339 100.828 294.605 100.828Z" fill="white"/>
<path d="M310.281 100.78C311.819 100.78 313.061 101.277 314.007 102.27C314.952 103.248 315.425 104.667 315.425 106.526L315.425 114.195L313.238 114.195L313.238 106.718C313.238 105.404 312.901 104.394 312.228 103.689C311.555 102.984 310.641 102.631 309.488 102.631C308.286 102.631 307.324 103.024 306.603 103.809C305.882 104.578 305.521 105.708 305.521 107.199L305.521 114.195L303.334 114.195L303.334 96.4044L305.521 96.4044L305.521 104.122C305.858 103.048 306.451 102.222 307.3 101.645C308.165 101.068 309.159 100.78 310.281 100.78Z" fill="white"/>
<path d="M324.406 100.828C325.672 100.828 326.802 101.1 327.795 101.645C328.805 102.19 329.59 102.976 330.151 104.001C330.728 105.027 331.016 106.229 331.016 107.608C331.016 108.986 330.728 110.188 330.151 111.214C329.59 112.224 328.805 113.001 327.795 113.546C326.802 114.091 325.672 114.363 324.406 114.363C323.14 114.363 322.002 114.091 320.992 113.546C319.999 113.001 319.213 112.224 318.636 111.214C318.059 110.188 317.771 108.986 317.771 107.608C317.771 106.229 318.059 105.027 318.636 104.001C319.213 102.976 319.999 102.19 320.992 101.645C322.002 101.1 323.14 100.828 324.406 100.828ZM324.406 102.751C323.62 102.751 322.891 102.928 322.218 103.28C321.561 103.633 321.024 104.178 320.608 104.915C320.207 105.636 320.007 106.534 320.007 107.608C320.007 108.665 320.207 109.563 320.608 110.3C321.024 111.021 321.561 111.558 322.218 111.911C322.891 112.264 323.62 112.44 324.406 112.44C325.191 112.44 325.912 112.264 326.569 111.911C327.242 111.558 327.779 111.021 328.18 110.3C328.597 109.563 328.805 108.665 328.805 107.608C328.805 106.534 328.597 105.636 328.18 104.915C327.779 104.178 327.242 103.633 326.569 103.28C325.912 102.928 325.191 102.751 324.406 102.751Z" fill="white"/>
<path d="M339.492 100.828C340.758 100.828 341.888 101.1 342.882 101.645C343.891 102.19 344.676 102.976 345.237 104.001C345.814 105.027 346.103 106.229 346.103 107.608C346.103 108.986 345.814 110.188 345.237 111.214C344.676 112.224 343.891 113.001 342.882 113.546C341.888 114.091 340.758 114.363 339.492 114.363C338.226 114.363 337.088 114.091 336.079 113.546C335.085 113.001 334.3 112.224 333.723 111.214C333.146 110.188 332.857 108.986 332.857 107.608C332.857 106.229 333.146 105.027 333.723 104.001C334.3 102.976 335.085 102.19 336.079 101.645C337.088 101.1 338.226 100.828 339.492 100.828ZM339.492 102.751C338.707 102.751 337.978 102.928 337.305 103.28C336.647 103.633 336.111 104.178 335.694 104.915C335.293 105.636 335.093 106.534 335.093 107.608C335.093 108.665 335.293 109.563 335.694 110.3C336.111 111.021 336.647 111.558 337.305 111.911C337.978 112.264 338.707 112.44 339.492 112.44C340.277 112.44 340.999 112.264 341.656 111.911C342.329 111.558 342.866 111.022 343.266 110.3C343.683 109.563 343.891 108.665 343.891 107.608C343.891 106.534 343.683 105.636 343.266 104.915C342.866 104.178 342.329 103.633 341.656 103.28C340.999 102.928 340.277 102.751 339.492 102.751Z" fill="white"/>
<path d="M350.78 96.4044L350.78 114.195L348.593 114.195L348.593 96.4044L350.78 96.4044Z" fill="white"/>
</svg>
